<svg width="48" height="48" viewBox="0 0 48 48" fill="none" xmlns="http://www.w3.org/2000/svg">
<mask id="mask0_17_89" style="mask-type:alpha" maskUnits="userSpaceOnUse" x="0" y="0" width="48" height="48">
<path d="M16.6451 0.0519817L4.01756 4.29061C3.75152 4.37991 3.53524 4.57689 3.42154 4.83345L0.224607 12.047C0.0848852 12.3623 0.117459 12.7273 0.310799 13.0129L23.172 46.777C23.5686 47.3628 24.4314 47.3628 24.8281 46.777L47.6892 13.0129C47.8825 12.7273 47.9151 12.3623 47.7754 12.047L44.5785 4.83345C44.4648 4.57689 44.2485 4.37991 43.9824 4.29061L31.3549 0.0519817C31.2523 0.0175554 31.1448 0 31.0366 0H16.9634C16.8552 0 16.7477 0.0175554 16.6451 0.0519817Z" fill="#2188FF"/>
</mask>
<g mask="url(#mask0_17_89)">
<path d="M3.6 4.43077L16.8 0H31.2L44.4 4.43077L48 12.5538L24 48L0 12.5538L3.6 4.43077Z" fill="black"/>
<path d="M23.9999 48L47.9999 12.5538L34.7999 16.9846L23.9999 48Z" fill="white" fill-opacity="0.4"/>
<path d="M31.1997 8.12303L44.3997 4.43073L47.9997 12.5538L34.7997 16.9846L31.1997 8.12303Z" fill="white" fill-opacity="0.5"/>
<path d="M34.7998 16.9846H13.1998L23.9998 48L34.7998 16.9846Z" fill="white" fill-opacity="0.1"/>
<path d="M16.7998 8.12308H31.1998L34.7998 16.9846H13.1998L16.7998 8.12308Z" fill="white" fill-opacity="0.3"/>
<path d="M16.7999 -6.10352e-05L3.59988 4.43071L16.7999 8.12301H31.1999L44.3999 4.43071L31.1999 -6.10352e-05H16.7999Z" fill="white" fill-opacity="0.1"/>
<path d="M-0.000335693 12.5538L23.9997 48L13.1997 16.9846L-0.000335693 12.5538Z" fill="black" fill-opacity="0.2"/>
<path d="M3.59966 4.43073L16.7996 8.12303L13.1996 16.9846L-0.000335693 12.5538L3.59966 4.43073Z" fill="black" fill-opacity="0.3"/>
<path d="M16.486 -0.422027L3.85845 3.8166C3.45939 3.95055 3.13497 4.24602 2.96442 4.63087L-0.232513 11.8445C-0.442096 12.3174 -0.393234 12.8649 -0.103225 13.2932L22.7579 47.0574C23.3529 47.9361 24.6471 47.9361 25.2421 47.0574L48.1032 13.2932C48.3932 12.8649 48.4421 12.3174 48.2325 11.8445L45.0356 4.63087C44.865 4.24602 44.5406 3.95055 44.1415 3.8166L31.514 -0.422027C31.3601 -0.473667 31.1989 -0.5 31.0366 -0.5H16.9634C16.8011 -0.5 16.6399 -0.473667 16.486 -0.422027Z" stroke="black" stroke-linecap="round" stroke-linejoin="round"/>
</g>
</svg>
